<svg xmlns="http://www.w3.org/2000/svg" viewBox="0 0 1600 900" font-family="Inter, system-ui, sans-serif">
  <defs>
    <linearGradient id="bg" x1="0" y1="0" x2="1" y2="1">
      <stop offset="0" stop-color="#0f172a"/><stop offset="1" stop-color="#1e3a8a"/>
    </linearGradient>
    <marker id="arr" viewBox="0 0 10 10" refX="8" refY="5" markerWidth="7" markerHeight="7" orient="auto">
      <path d="M0 0L10 5L0 10z" fill="#93c5fd"/>
    </marker>
  </defs>
  <rect width="1600" height="900" fill="url(#bg)"/>
  <!-- Legacy source -->
  <g transform="translate(110 230)">
    <rect width="360" height="440" rx="22" fill="#111827" stroke="#334155" stroke-width="2"/>
    <circle cx="30" cy="30" r="7" fill="#f87171"/><circle cx="54" cy="30" r="7" fill="#fbbf24"/><circle cx="78" cy="30" r="7" fill="#34d399"/>
    <g fill="#475569">
      <rect x="30" y="80" width="220" height="14" rx="7"/><rect x="60" y="112" width="250" height="14" rx="7"/>
      <rect x="60" y="144" width="180" height="14" rx="7"/><rect x="30" y="176" width="270" height="14" rx="7"/>
      <rect x="60" y="208" width="200" height="14" rx="7"/><rect x="90" y="240" width="210" height="14" rx="7"/>
      <rect x="30" y="272" width="240" height="14" rx="7"/><rect x="60" y="304" width="160" height="14" rx="7"/>
      <rect x="60" y="336" width="260" height="14" rx="7"/><rect x="30" y="368" width="190" height="14" rx="7"/>
    </g>
    <text x="180" y="490" fill="#cbd5e1" font-size="30" text-anchor="middle" font-weight="600">Legacy code</text>
  </g>
  <path d="M495 450 H585" stroke="#93c5fd" stroke-width="5" marker-end="url(#arr)"/>
  <!-- Dependency / lineage graph -->
  <g transform="translate(610 190)" stroke="#60a5fa" stroke-width="3" fill="none">
    <path d="M190 70 L80 220 M190 70 L300 220 M80 220 L190 370 M300 220 L190 370 M80 220 L80 420 M300 220 L320 430 M190 370 L190 480"/>
  </g>
  <g transform="translate(610 190)">
    <circle cx="190" cy="70" r="34" fill="#3b82f6"/>
    <circle cx="80" cy="220" r="28" fill="#60a5fa"/><circle cx="300" cy="220" r="28" fill="#60a5fa"/>
    <circle cx="190" cy="370" r="30" fill="#818cf8"/><circle cx="80" cy="420" r="22" fill="#a5b4fc"/>
    <circle cx="320" cy="430" r="22" fill="#a5b4fc"/><circle cx="190" cy="480" r="22" fill="#a5b4fc"/>
    <text x="190" y="550" fill="#cbd5e1" font-size="30" text-anchor="middle" font-weight="600">Logic &amp; lineage</text>
  </g>
  <path d="M1015 450 H1105" stroke="#93c5fd" stroke-width="5" marker-end="url(#arr)"/>
  <!-- Modern services -->
  <g transform="translate(1130 230)">
    <rect width="360" height="120" rx="22" fill="#ecfeff"/><rect x="30" y="40" width="160" height="16" rx="8" fill="#0e7490"/><rect x="30" y="70" width="230" height="12" rx="6" fill="#67e8f9"/>
    <rect y="160" width="360" height="120" rx="22" fill="#eef2ff"/><rect x="30" y="200" width="140" height="16" rx="8" fill="#4338ca"/><rect x="30" y="230" width="250" height="12" rx="6" fill="#a5b4fc"/>
    <rect y="320" width="360" height="120" rx="22" fill="#f0fdf4"/><rect x="30" y="360" width="180" height="16" rx="8" fill="#15803d"/><rect x="30" y="390" width="210" height="12" rx="6" fill="#86efac"/>
    <text x="180" y="490" fill="#cbd5e1" font-size="30" text-anchor="middle" font-weight="600">Modern platform</text>
  </g>
  <text x="800" y="110" fill="#ffffff" font-size="44" text-anchor="middle" font-weight="700">Reverse engineer → Map → Forward engineer</text>
</svg>
